<?xml version="1.0" standalone="no"?>
<!DOCTYPE svg PUBLIC "-//W3C//DTD SVG 1.1//EN" "http://www.w3.org/Graphics/SVG/1.1/DTD/svg11.dtd">
<svg xmlns="http://www.w3.org/2000/svg" xmlns:xlink="http://www.w3.org/1999/xlink" version="1.1" id="Layer_1" x="0px" y="0px" viewBox="0 0 279.3454 83.9517" style="enable-background:new 0 0 279.3454 83.9517;" xml:space="preserve" width="279.34539794921875" height="83.95169830322266">
<style type="text/css">
	.st0{fill:#F5F9FC;}
	.st1{fill:#D9DFD7;}
	.st2{fill:#FFFFFF;}
	.st3{fill:#3B3B3B;}
	.st4{fill:#98A197;}
	.st5{fill:#4F4DAB;}
	.st6{fill:#F4F5F6;}
	.st7{fill:#FF8D7F;}
	.st8{fill:#E2DAF7;}
	.st9{fill:none;stroke:#D9DFD7;stroke-miterlimit:10;}
	.st10{fill:#4AC9C9;}
	.st11{fill:#08AE86;}
	.st12{fill:#FFAD02;}
	.st13{fill:#6692F6;}
	.st14{fill:none;stroke:#FFFFFF;stroke-width:0.75;stroke-linecap:round;stroke-linejoin:round;stroke-miterlimit:10;}
	.st15{fill:none;stroke:#4F4DAB;stroke-width:0.75;stroke-linecap:round;stroke-linejoin:round;stroke-miterlimit:10;}
	.st16{fill:none;stroke:#D9DFD7;stroke-width:0.5;stroke-miterlimit:10;}
	.st17{fill:none;stroke:#3B3B3B;stroke-width:0.5;stroke-miterlimit:10;}
	.st18{fill:none;stroke:#98A197;stroke-width:0.75;stroke-linecap:round;stroke-linejoin:round;stroke-miterlimit:10;}
	.st19{fill:#37A264;}
	.st20{fill:none;stroke:#FFFFFF;stroke-width:1.5;stroke-miterlimit:10;}
	.st21{fill:none;stroke:#FF8D7F;stroke-width:0.75;stroke-linecap:round;stroke-linejoin:round;stroke-miterlimit:10;}
	.st22{fill:none;stroke:#37A264;stroke-width:0.75;stroke-linecap:round;stroke-linejoin:round;stroke-miterlimit:10;}
	.st23{fill:none;stroke:#FA8F8C;stroke-width:0.75;stroke-linecap:round;stroke-linejoin:round;stroke-miterlimit:10;}
	.st24{fill:none;stroke:#FFFFFF;stroke-width:0.75;stroke-miterlimit:10;}
	.st25{clip-path:url(#SVGID_00000070106148618024159140000014358293575183161000_);}
	.st26{clip-path:url(#SVGID_00000058578213921606587820000011985373906209407384_);fill:#FFFFFF;}
	.st27{clip-path:url(#SVGID_00000058578213921606587820000011985373906209407384_);fill:#BD0034;}
	.st28{clip-path:url(#SVGID_00000058578213921606587820000011985373906209407384_);fill:#1A237B;}
	.st29{fill:none;stroke:#98A197;stroke-width:0.91473;stroke-linecap:round;stroke-linejoin:round;stroke-miterlimit:10;}
	.st30{opacity:0.2;}
	.st31{opacity:0.2;fill:none;stroke:#4F4DAB;stroke-width:4;stroke-linecap:round;stroke-miterlimit:10;}
	.st32{fill:none;stroke:#4F4DAB;stroke-width:4;stroke-linecap:round;stroke-linejoin:round;stroke-miterlimit:10;}
	.st33{opacity:0.2;fill:none;stroke:#98A197;stroke-width:4;stroke-linecap:round;stroke-linejoin:round;stroke-miterlimit:10;}
	.st34{fill:none;stroke:#98A197;stroke-width:4;stroke-linecap:round;stroke-linejoin:round;stroke-miterlimit:10;}
	.st35{opacity:0.2;fill:none;stroke:#FF8D7F;stroke-width:4;stroke-linecap:round;stroke-miterlimit:10;}
	.st36{fill:none;stroke:#FF8D7F;stroke-width:4;stroke-linecap:round;stroke-linejoin:round;stroke-miterlimit:10;}
	.st37{opacity:0.2;fill:none;stroke:#4AC9C9;stroke-width:4;stroke-linecap:round;stroke-miterlimit:10;}
	.st38{fill:none;stroke:#4AC9C9;stroke-width:4;stroke-linecap:round;stroke-linejoin:round;stroke-miterlimit:10;}
	.st39{fill:none;stroke:#D9DFD7;stroke-width:4;stroke-linecap:round;stroke-miterlimit:10;}
	.st40{fill:none;stroke:#98A197;stroke-width:4;stroke-linecap:round;stroke-miterlimit:10;}
</style>
<g>
	<path class="st3" d="M119.011,47.25666V28.10555H20.2886l81.7078-4.56408L96.83765,0.50002L0.50002,22.06862l4.18391,18.68886   c3.22064-0.72107,6.41559,1.30517,7.13666,4.52581c0.72107,3.22013-1.30517,6.41509-4.52581,7.13616l4.18441,18.68886   l8.80942-1.97236v9.22333h98.7224V59.20817c-3.30019,0-5.97601-2.67581-5.97601-5.97601S115.71081,47.25666,119.011,47.25666z    M57.63662,61.1619c0,1.46127-0.46829,2.78256-1.40588,3.96588c-0.93759,1.18281-2.38728,1.77346-4.35058,1.77346   c-1.78505,0-3.1879-0.5831-4.20908-1.74879c-1.02068-1.1657-1.53126-2.49605-1.53126-3.99055V42.50275h3.83294V61.1619   c0.13344,1.27143,0.76941,1.9069,1.90741,1.9069c1.22713-0.04431,1.86864-0.67978,1.92403-1.9069V42.50275h3.83244V61.1619z    M71.36864,46.30195h-3.79921v20.09776h-3.79819V46.30195h-3.79819v-3.79921h11.3956V46.30195z M78.46501,66.41582h-3.79819   V42.50275h3.79819V66.41582z M93.15929,66.39971h-3.7992l-1.90741-7.3129l-1.89079,7.3129h-3.7987l3.7987-11.94848   l-3.7987-11.94848h3.7987l1.89079,7.3129l1.90741-7.3129h3.7992l-3.7992,11.94848L93.15929,66.39971z"/>
	<g>
		<path class="st3" d="M153.17448,28.23791c1.33691,0,2.48047,0.12708,3.43164,0.38135    c0.95117,0.25415,1.72949,0.6167,2.33691,1.0874c0.60742,0.47083,1.05273,1.04041,1.33496,1.70874    c0.28223,0.66858,0.42383,1.42175,0.42383,2.25952c0,0.48022-0.07129,0.93909-0.21191,1.37695    c-0.1416,0.43774-0.36035,0.84729-0.65723,1.22864c-0.2959,0.38123-0.67285,0.72729-1.12988,1.03796    c-0.45605,0.31067-1,0.57434-1.63086,0.79077c2.80566,0.63086,4.20898,2.14661,4.20898,4.54736    c0,0.86633-0.16504,1.6665-0.49512,2.40076c-0.3291,0.73438-0.80957,1.36768-1.44043,1.89941    c-0.63086,0.5321-1.40723,0.94873-2.33008,1.24988c-0.92285,0.30139-1.97656,0.4519-3.16309,0.4519h-7.71094V28.23791H153.17448z     M149.94011,31.17529v5.90308h3.02246c1.29883,0,2.28027-0.23523,2.94434-0.70605c0.66406-0.4707,0.99609-1.21924,0.99609-2.24548    c0-1.06372-0.30176-1.82178-0.9043-2.27368s-1.54395-0.67786-2.82422-0.67786H149.94011z M153.78191,45.69287    c0.70605,0,1.29883-0.08472,1.7793-0.25415c0.47949-0.16943,0.86328-0.39539,1.15039-0.67786s0.49512-0.61194,0.62207-0.98853    c0.12695-0.37646,0.19043-0.77673,0.19043-1.20044c0-0.44238-0.07031-0.84021-0.21191-1.19336    c-0.1416-0.35303-0.3623-0.65417-0.66406-0.90381c-0.30078-0.24927-0.68945-0.43994-1.16504-0.5719    c-0.47559-0.13171-1.04688-0.19775-1.71582-0.19775h-3.82715v5.98779H153.78191z"/>
		<path class="st3" d="M167.48015,27.67297v20.9856h-3.48828v-20.9856H167.48015z"/>
		<path class="st3" d="M177.37956,33.94323c1.07324,0,2.0498,0.17432,2.92969,0.52258    c0.88086,0.34839,1.63379,0.84265,2.25977,1.48279c0.62598,0.64038,1.1084,1.42175,1.44727,2.34424    c0.33887,0.92285,0.50879,1.95374,0.50879,3.09277c0,1.1488-0.16992,2.18433-0.50879,3.10693    c-0.33887,0.92273-0.82129,1.70874-1.44727,2.3584s-1.37891,1.14868-2.25977,1.49695    c-0.87988,0.34814-1.85645,0.52246-2.92969,0.52246c-1.08301,0-2.06738-0.17432-2.95215-0.52246    c-0.88477-0.34827-1.64062-0.84729-2.2666-1.49695s-1.11035-1.43567-1.4541-2.3584    c-0.34375-0.92261-0.51562-1.95813-0.51562-3.10693c0-1.13904,0.17188-2.16992,0.51562-3.09277    c0.34375-0.92249,0.82812-1.70386,1.4541-2.34424c0.62598-0.64014,1.38184-1.1344,2.2666-1.48279    C175.31218,34.11755,176.29655,33.94323,177.37956,33.94323z M177.37956,46.18713c1.20508,0,2.09668-0.40466,2.67578-1.21448    c0.5791-0.80957,0.86816-1.99585,0.86816-3.55872c0-1.56274-0.28906-2.75391-0.86816-3.573s-1.4707-1.22864-2.67578-1.22864    c-1.22461,0-2.13086,0.41199-2.71875,1.23572c-0.58887,0.82397-0.88281,2.01245-0.88281,3.56592    c0,1.55334,0.29395,2.73743,0.88281,3.55164C175.2487,45.78003,176.15495,46.18713,177.37956,46.18713z"/>
		<path class="st3" d="M197.5739,37.23376c-0.10352,0.13196-0.20508,0.23535-0.30371,0.31067    c-0.09863,0.07544-0.24219,0.11292-0.43066,0.11292c-0.17871,0-0.35254-0.05396-0.52246-0.16235    c-0.16895-0.10815-0.37207-0.23059-0.60742-0.36719c-0.23535-0.13635-0.51562-0.25879-0.83984-0.36719    c-0.3252-0.10815-0.72754-0.16235-1.20801-0.16235c-0.61133,0-1.14844,0.11072-1.60938,0.33179    c-0.46191,0.22131-0.8457,0.53906-1.15137,0.95325c-0.30566,0.41443-0.53418,0.91577-0.68457,1.50403    c-0.15039,0.5885-0.22559,1.25464-0.22559,1.99829c0,0.77209,0.08203,1.45947,0.24707,2.06189    c0.16406,0.60254,0.40234,1.10852,0.71289,1.51807s0.6875,0.72021,1.12988,0.93213    c0.44238,0.21179,0.94141,0.31775,1.49707,0.31775c0.55469,0,1.00488-0.06824,1.34863-0.20483    c0.34375-0.13635,0.63281-0.28699,0.86816-0.4519c0.23535-0.16455,0.44043-0.31531,0.61426-0.4519    c0.17383-0.13635,0.36914-0.20471,0.58594-0.20471c0.28223,0,0.49414,0.10828,0.63574,0.32483l1.00293,1.271    c-0.38672,0.4519-0.80566,0.83093-1.25684,1.13684c-0.45215,0.30603-0.9209,0.55066-1.40527,0.73425    c-0.48535,0.18359-0.98438,0.31299-1.49707,0.38843c-0.51367,0.0752-1.02344,0.11292-1.53223,0.11292    c-0.89453,0-1.7373-0.16724-2.52832-0.50134c-0.79004-0.33398-1.48242-0.82129-2.0752-1.46155    c-0.59375-0.64014-1.06152-1.42395-1.40527-2.35144c-0.34375-0.92712-0.51562-1.98413-0.51562-3.17041    c0-1.06372,0.15234-2.04993,0.45898-2.95862c0.30566-0.90845,0.75586-1.69458,1.34863-2.3584    c0.59277-0.6637,1.32715-1.18384,2.20312-1.56042c0.875-0.37646,1.88281-0.56494,3.02246-0.56494    c1.08203,0,2.03027,0.17432,2.84473,0.52258c0.81445,0.34839,1.54688,0.84729,2.19629,1.49695L197.5739,37.23376z"/>
		<path class="st3" d="M204.29558,27.67297v12.01807h0.64941c0.23535,0,0.42188-0.03052,0.55859-0.0918    c0.13574-0.06116,0.27539-0.18579,0.41602-0.37427l3.60156-4.44849c0.15039-0.19775,0.31738-0.34827,0.50098-0.4519    c0.18359-0.10352,0.4209-0.1554,0.71289-0.1554h3.19238l-4.50488,5.38062c-0.32031,0.42358-0.66895,0.74841-1.0459,0.97437    c0.19824,0.14124,0.375,0.30603,0.53027,0.49426c0.15527,0.18848,0.30371,0.39087,0.44434,0.6073l4.83008,7.03284h-3.14941    c-0.27344,0-0.50879-0.04456-0.70605-0.13416c-0.19727-0.08936-0.3623-0.25183-0.49414-0.48718l-3.7002-5.49353    c-0.13184-0.21655-0.26855-0.35767-0.40918-0.42371c-0.1416-0.0658-0.35352-0.09888-0.63574-0.09888h-0.79102v6.63745h-3.48828    v-20.9856H204.29558z"/>
		<path class="st3" d="M225.54948,37.23376c-0.10352,0.13196-0.20508,0.23535-0.30371,0.31067    c-0.09863,0.07544-0.24219,0.11292-0.43066,0.11292c-0.17871,0-0.35254-0.05396-0.52246-0.16235    c-0.16895-0.10815-0.37207-0.23059-0.60742-0.36719c-0.23535-0.13635-0.51562-0.25879-0.83984-0.36719    c-0.3252-0.10815-0.72754-0.16235-1.20801-0.16235c-0.61133,0-1.14844,0.11072-1.60938,0.33179    c-0.46191,0.22131-0.8457,0.53906-1.15137,0.95325c-0.30566,0.41443-0.53418,0.91577-0.68457,1.50403    c-0.15039,0.5885-0.22559,1.25464-0.22559,1.99829c0,0.77209,0.08203,1.45947,0.24707,2.06189    c0.16406,0.60254,0.40234,1.10852,0.71289,1.51807s0.6875,0.72021,1.12988,0.93213    c0.44238,0.21179,0.94141,0.31775,1.49707,0.31775c0.55469,0,1.00488-0.06824,1.34863-0.20483    c0.34375-0.13635,0.63281-0.28699,0.86816-0.4519c0.23535-0.16455,0.44043-0.31531,0.61426-0.4519    c0.17383-0.13635,0.36914-0.20471,0.58594-0.20471c0.28223,0,0.49414,0.10828,0.63574,0.32483l1.00293,1.271    c-0.38672,0.4519-0.80566,0.83093-1.25684,1.13684c-0.45215,0.30603-0.9209,0.55066-1.40527,0.73425    c-0.48535,0.18359-0.98438,0.31299-1.49707,0.38843c-0.51367,0.0752-1.02344,0.11292-1.53223,0.11292    c-0.89453,0-1.7373-0.16724-2.52832-0.50134c-0.79004-0.33398-1.48242-0.82129-2.0752-1.46155    c-0.59375-0.64014-1.06152-1.42395-1.40527-2.35144c-0.34375-0.92712-0.51562-1.98413-0.51562-3.17041    c0-1.06372,0.15234-2.04993,0.45898-2.95862c0.30566-0.90845,0.75586-1.69458,1.34863-2.3584    c0.59277-0.6637,1.32715-1.18384,2.20312-1.56042c0.875-0.37646,1.88281-0.56494,3.02246-0.56494    c1.08203,0,2.03027,0.17432,2.84473,0.52258c0.81445,0.34839,1.54688,0.84729,2.19629,1.49695L225.54948,37.23376z"/>
		<path class="st3" d="M232.27116,35.72265c0.56543-0.5271,1.18652-0.95544,1.86426-1.28516    c0.67773-0.32935,1.47363-0.49426,2.38672-0.49426c0.79102,0,1.49219,0.13416,2.10449,0.40247    c0.61133,0.26831,1.12207,0.64502,1.53223,1.12976c0.40918,0.48511,0.71973,1.06409,0.93164,1.73706    c0.21191,0.67322,0.31738,1.41467,0.31738,2.22424v9.2218h-3.4873v-9.2218c0-0.88477-0.20312-1.5697-0.60742-2.05481    c-0.40527-0.48474-1.02148-0.72729-1.85059-0.72729c-0.60254,0-1.16699,0.1366-1.69434,0.40955    c-0.52734,0.27319-1.02637,0.64502-1.49707,1.11572v10.47864h-3.48828v-20.9856h3.48828V35.72265z"/>
		<path class="st3" d="M244.3737,36.18872c1.66699-1.52527,3.67188-2.28784,6.0166-2.28784    c0.84668,0,1.60449,0.13904,2.27344,0.41663c0.66797,0.27783,1.2334,0.6637,1.69434,1.15796    c0.46094,0.49438,0.8125,1.08521,1.05273,1.77234c0.23926,0.68738,0.35938,1.44055,0.35938,2.25964v9.15112h-1.58105    c-0.33008,0-0.58398-0.04944-0.7627-0.14832s-0.32031-0.29871-0.42383-0.60022l-0.31055-1.04492    c-0.36719,0.32959-0.72559,0.61914-1.07324,0.86841c-0.34863,0.24963-0.71094,0.45898-1.08789,0.62854    c-0.37598,0.16943-0.7793,0.29871-1.20703,0.38831c-0.42871,0.08936-0.90137,0.13416-1.41992,0.13416    c-0.61133,0-1.17676-0.08252-1.69434-0.24719c-0.51758-0.16455-0.96484-0.41174-1.3418-0.74133    c-0.37598-0.32947-0.66797-0.73901-0.875-1.22864c-0.20703-0.48938-0.31055-1.0592-0.31055-1.70874    c0-0.36719,0.06055-0.73193,0.18359-1.09448c0.12207-0.36243,0.32227-0.70837,0.59961-1.03809    c0.27734-0.32935,0.6377-0.64001,1.08008-0.93201c0.44238-0.29175,0.98633-0.5459,1.63184-0.76257    c0.64453-0.21643,1.39551-0.39307,2.25195-0.52954s1.83594-0.21899,2.9375-0.24719v-0.84729    c0-0.9696-0.20703-1.68762-0.62109-2.15369s-1.0127-0.6991-1.79395-0.6991c-0.56445,0-1.0332,0.06604-1.40527,0.19775    c-0.37207,0.13196-0.69824,0.28027-0.98145,0.44482c-0.28223,0.16492-0.53906,0.31311-0.76953,0.44495    s-0.4873,0.19763-0.76953,0.19763c-0.24512,0-0.45215-0.06348-0.62109-0.19067c-0.16992-0.12708-0.30664-0.27539-0.41016-0.44482    L244.3737,36.18872z M252.36687,42.47302c-1.00781,0.04724-1.85449,0.13416-2.54199,0.26135    c-0.6875,0.12708-1.23828,0.28943-1.65234,0.48718c-0.41406,0.19763-0.71094,0.42847-0.88965,0.69202    c-0.17871,0.26367-0.26855,0.55066-0.26855,0.86145c0,0.61206,0.18164,1.0498,0.54395,1.31335    c0.3623,0.26367,0.83594,0.39539,1.41992,0.39539c0.71484,0,1.33398-0.12927,1.85645-0.38843    c0.52246-0.25879,1.0332-0.65173,1.53223-1.1792V42.47302z"/>
		<path class="st3" d="M263.14227,29.94665c0,0.30151-0.06152,0.58386-0.18359,0.84741    c-0.12207,0.26367-0.28516,0.49426-0.4873,0.69189c-0.20215,0.19775-0.44043,0.35547-0.71289,0.47314    c-0.27344,0.1178-0.56543,0.17651-0.87598,0.17651c-0.30078,0-0.58594-0.05872-0.85449-0.17651    c-0.26758-0.11768-0.50098-0.27539-0.69922-0.47314c-0.19727-0.19763-0.35547-0.42822-0.47266-0.69189    c-0.11816-0.26355-0.17676-0.5459-0.17676-0.84741c0-0.31067,0.05859-0.60242,0.17676-0.87549    c0.11719-0.27295,0.27539-0.50842,0.47266-0.70618c0.19824-0.19775,0.43164-0.35522,0.69922-0.47302    c0.26855-0.11768,0.55371-0.17664,0.85449-0.17664c0.31055,0,0.60254,0.05896,0.87598,0.17664    c0.27246,0.1178,0.51074,0.27527,0.71289,0.47302s0.36523,0.43323,0.4873,0.70618    C263.08075,29.34423,263.14227,29.63598,263.14227,29.94665z M262.6618,34.16919v14.48938h-3.50195V34.16919H262.6618z"/>
		<path class="st3" d="M269.48309,35.9486c0.29102-0.29175,0.59961-0.5625,0.9248-0.81201    c0.3252-0.24939,0.66797-0.46118,1.03125-0.6355c0.3623-0.17407,0.75-0.31067,1.16504-0.40955    c0.41406-0.09888,0.86621-0.14832,1.35547-0.14832c0.79102,0,1.49219,0.13416,2.10449,0.40247    c0.61133,0.26831,1.12207,0.64502,1.53223,1.12976c0.40918,0.48511,0.71973,1.06409,0.93164,1.73706    c0.21191,0.67322,0.31738,1.41467,0.31738,2.22424v9.2218h-3.4873v-9.2218c0-0.88477-0.20312-1.5697-0.60742-2.05481    c-0.40527-0.48474-1.02148-0.72729-1.85059-0.72729c-0.60254,0-1.16699,0.1366-1.69434,0.40955    c-0.52734,0.27319-1.02637,0.64502-1.49707,1.11572v10.47864h-3.48828V34.16919h2.13281c0.45215,0,0.74805,0.21191,0.88965,0.6355    L269.48309,35.9486z"/>
	</g>
	<g>
		<path class="st3" d="M162.25456,61.05385h-6.15723v17.29969h-3.79883V61.05385h-6.15723v-3.12097h16.11328V61.05385z"/>
		<path class="st3" d="M168.35515,59.64162c0,0.30151-0.06152,0.58386-0.18359,0.84741    c-0.12207,0.26367-0.28516,0.49426-0.4873,0.69189c-0.20215,0.19775-0.44043,0.35547-0.71289,0.47314    c-0.27344,0.1178-0.56543,0.17651-0.87598,0.17651c-0.30078,0-0.58594-0.05872-0.85449-0.17651    c-0.26758-0.11768-0.50098-0.27539-0.69922-0.47314c-0.19727-0.19763-0.35547-0.42822-0.47266-0.69189    c-0.11816-0.26355-0.17676-0.5459-0.17676-0.84741c0-0.31067,0.05859-0.60242,0.17676-0.87549    c0.11719-0.27295,0.27539-0.50842,0.47266-0.70618c0.19824-0.19775,0.43164-0.35522,0.69922-0.47302    c0.26855-0.11768,0.55371-0.17664,0.85449-0.17664c0.31055,0,0.60254,0.05896,0.87598,0.17664    c0.27246,0.1178,0.51074,0.27527,0.71289,0.47302s0.36523,0.43323,0.4873,0.70618    C168.29362,59.0392,168.35515,59.33095,168.35515,59.64162z M167.87468,63.86415v14.48938h-3.50195V63.86415H167.87468z"/>
		<path class="st3" d="M181.81316,66.92873c-0.10352,0.13196-0.20508,0.23535-0.30371,0.31067    c-0.09863,0.07544-0.24219,0.11292-0.43066,0.11292c-0.17871,0-0.35254-0.05396-0.52246-0.16235    c-0.16895-0.10815-0.37207-0.23059-0.60742-0.36719c-0.23535-0.13635-0.51562-0.25879-0.83984-0.36719    c-0.3252-0.10815-0.72754-0.16235-1.20801-0.16235c-0.61133,0-1.14844,0.11072-1.60938,0.33179    c-0.46191,0.22131-0.8457,0.53906-1.15137,0.95325c-0.30566,0.41443-0.53418,0.91577-0.68457,1.50403    c-0.15039,0.5885-0.22559,1.25464-0.22559,1.99829c0,0.77209,0.08203,1.45947,0.24707,2.06189    c0.16406,0.60254,0.40234,1.10852,0.71289,1.51807s0.6875,0.72021,1.12988,0.93213    c0.44238,0.21179,0.94141,0.31775,1.49707,0.31775c0.55469,0,1.00488-0.06824,1.34863-0.20483    c0.34375-0.13635,0.63281-0.28699,0.86816-0.4519c0.23535-0.16455,0.44043-0.31531,0.61426-0.4519    c0.17383-0.13635,0.36914-0.20471,0.58594-0.20471c0.28223,0,0.49414,0.10828,0.63574,0.32483l1.00293,1.271    c-0.38672,0.4519-0.80566,0.83093-1.25684,1.13684c-0.45215,0.30603-0.9209,0.55066-1.40527,0.73425    c-0.48535,0.18359-0.98438,0.31299-1.49707,0.38843c-0.51367,0.0752-1.02344,0.11292-1.53223,0.11292    c-0.89453,0-1.7373-0.16724-2.52832-0.50134c-0.79004-0.33398-1.48242-0.82129-2.0752-1.46155    c-0.59375-0.64014-1.06152-1.42395-1.40527-2.35144c-0.34375-0.92712-0.51562-1.98413-0.51562-3.17041    c0-1.06372,0.15234-2.04993,0.45898-2.95862c0.30566-0.90845,0.75586-1.69458,1.34863-2.3584    c0.59277-0.6637,1.32715-1.18384,2.20312-1.56042c0.875-0.37647,1.88281-0.56495,3.02246-0.56495    c1.08203,0,2.03027,0.17432,2.84473,0.52259c0.81445,0.34839,1.54688,0.84729,2.19629,1.49695L181.81316,66.92873z"/>
		<path class="st3" d="M188.53581,57.36794v12.01807h0.64941c0.23535,0,0.42188-0.03052,0.55859-0.0918    c0.13574-0.06116,0.27539-0.18579,0.41602-0.37427l3.60156-4.44849c0.15039-0.19775,0.31738-0.34827,0.50098-0.4519    c0.18359-0.10352,0.4209-0.1554,0.71289-0.1554h3.19238l-4.50488,5.38062c-0.32031,0.42358-0.66895,0.74841-1.0459,0.97437    c0.19824,0.14124,0.375,0.30603,0.53027,0.49426c0.15527,0.18848,0.30371,0.39087,0.44434,0.6073l4.83008,7.03284h-3.14941    c-0.27344,0-0.50879-0.04456-0.70605-0.13416c-0.19727-0.08936-0.3623-0.25183-0.49414-0.48718l-3.7002-5.49353    c-0.13184-0.21655-0.26855-0.35767-0.40918-0.42371c-0.1416-0.0658-0.35352-0.09888-0.63574-0.09888h-0.79102v6.63745h-3.48828    v-20.9856H188.53581z"/>
		<path class="st3" d="M202.09343,71.54665c0.05664,0.7439,0.18848,1.38635,0.39551,1.92773s0.47949,0.98853,0.81934,1.34155    c0.33887,0.35303,0.74121,0.6167,1.20703,0.79089c0.46582,0.17432,0.98145,0.26123,1.5459,0.26123    c0.56543,0,1.05273-0.0658,1.46191-0.19775c0.41016-0.13171,0.76758-0.27759,1.07324-0.43774    c0.30566-0.16003,0.57422-0.30591,0.80469-0.43787c0.23145-0.13171,0.45508-0.19763,0.6709-0.19763    c0.29199,0,0.50879,0.10828,0.65039,0.32483l1.00195,1.271c-0.38574,0.4519-0.81836,0.83093-1.29883,1.13684    c-0.48047,0.30603-0.98145,0.55066-1.50391,0.73425s-1.05469,0.31299-1.5957,0.38843    c-0.54199,0.0752-1.06641,0.11292-1.5752,0.11292c-1.00684,0-1.94434-0.16724-2.80957-0.50134    c-0.86719-0.33398-1.62012-0.82825-2.25977-1.48279c-0.64062-0.6543-1.14453-1.46387-1.51172-2.42896    c-0.36719-0.96497-0.55078-2.08313-0.55078-3.35413c0-0.98853,0.16016-1.91809,0.48047-2.78906    c0.32031-0.87073,0.7793-1.62866,1.37695-2.27368c0.59766-0.64478,1.32715-1.15564,2.18945-1.53223    c0.86133-0.37647,1.83301-0.56495,2.91602-0.56495c0.91309,0,1.75586,0.14612,2.52734,0.43787    c0.77246,0.29187,1.43555,0.71802,1.99121,1.27795c0.55566,0.5603,0.99121,1.24768,1.30664,2.06189    c0.31543,0.81445,0.47266,1.74414,0.47266,2.78918c0,0.52734-0.05566,0.88257-0.16895,1.06616s-0.33008,0.27539-0.64941,0.27539    H202.09343z M208.7448,69.44241c0-0.4519-0.06348-0.87769-0.19043-1.27808c-0.12695-0.40002-0.31836-0.75061-0.57227-1.052    c-0.25391-0.30127-0.57617-0.53894-0.9668-0.71326c-0.3916-0.17407-0.8457-0.26123-1.36328-0.26123    c-1.00781,0-1.80078,0.28735-2.37988,0.86145c-0.5791,0.57434-0.94824,1.38879-1.1084,2.44312H208.7448z"/>
		<path class="st3" d="M228.96843,78.35354h-3.48828V66.47683h-6.72266v7.85193c0,0.4519,0.11035,0.80493,0.33203,1.05908    c0.2207,0.25427,0.52441,0.38135,0.91113,0.38135c0.21582,0,0.39746-0.02588,0.54297-0.07764    c0.14648-0.05164,0.27344-0.10596,0.38184-0.16248s0.20508-0.11047,0.28906-0.16235    c0.08496-0.05164,0.16992-0.07764,0.25488-0.07764c0.10352,0,0.1875,0.026,0.25391,0.07764    c0.06543,0.05188,0.13672,0.12952,0.21191,0.23303l1.04492,1.69458c-0.50879,0.42371-1.0918,0.7439-1.75098,0.96033    s-1.3418,0.32483-2.04785,0.32483c-1.26172,0-2.22949-0.35522-2.90234-1.06616c-0.67285-0.71082-1.00977-1.69226-1.00977-2.94458    v-8.09192h-1.48242c-0.18848,0-0.34863-0.06116-0.48047-0.18359c-0.13184-0.12231-0.19727-0.30591-0.19727-0.55078v-1.38403    l2.33008-0.39539l0.73438-3.94006c0.04688-0.18823,0.13574-0.33411,0.26758-0.43774    c0.13184-0.10352,0.30176-0.1554,0.50879-0.1554h1.80762v4.5614h10.21094V78.35354z M229.57487,59.58522    c0,0.30139-0.06055,0.58606-0.18359,0.85437c-0.12207,0.26831-0.28418,0.50134-0.4873,0.69897    c-0.20215,0.19775-0.44238,0.35547-0.71973,0.47314c-0.27832,0.1178-0.57227,0.17651-0.88281,0.17651    c-0.30176,0-0.58398-0.05872-0.84766-0.17651c-0.26367-0.11768-0.49414-0.27539-0.69141-0.47314    c-0.19824-0.19763-0.35547-0.43066-0.47363-0.69897c-0.11719-0.26831-0.17578-0.55298-0.17578-0.85437    c0-0.31079,0.05859-0.60022,0.17578-0.86853c0.11816-0.26831,0.27539-0.50354,0.47363-0.70618    c0.19727-0.20227,0.42773-0.3623,0.69141-0.4801c0.26367-0.11768,0.5459-0.17651,0.84766-0.17651    c0.31055,0,0.60449,0.05884,0.88281,0.17651c0.27734,0.1178,0.51758,0.27783,0.71973,0.4801    c0.20312,0.20264,0.36523,0.43787,0.4873,0.70618C229.51433,58.985,229.57487,59.27443,229.57487,59.58522z"/>
		<path class="st3" d="M235.78874,65.64358c0.29102-0.29175,0.59961-0.5625,0.9248-0.81201    c0.3252-0.24939,0.66797-0.46118,1.03125-0.6355c0.3623-0.17407,0.75-0.31067,1.16504-0.40955    c0.41406-0.09888,0.86621-0.14832,1.35547-0.14832c0.79102,0,1.49219,0.13416,2.10449,0.40247    c0.61133,0.26831,1.12207,0.64502,1.53223,1.12976c0.40918,0.48511,0.71973,1.06409,0.93164,1.73706    c0.21191,0.67322,0.31738,1.41467,0.31738,2.22424v9.2218h-3.4873v-9.2218c0-0.88477-0.20312-1.5697-0.60742-2.05481    c-0.40527-0.48474-1.02148-0.72729-1.85059-0.72729c-0.60254,0-1.16699,0.1366-1.69434,0.40955    c-0.52734,0.27319-1.02637,0.64502-1.49707,1.11572v10.47864h-3.48828V63.86415h2.13281c0.45215,0,0.74805,0.21192,0.88965,0.6355    L235.78874,65.64358z"/>
		<path class="st3" d="M261.16571,64.35842v1.29932c0,0.41431-0.24902,0.66858-0.74805,0.76257l-1.2998,0.24011    c0.19824,0.49902,0.29688,1.04504,0.29688,1.63818c0,0.71558-0.14355,1.36279-0.43066,1.94177s-0.68457,1.07104-1.19336,1.47571    c-0.50879,0.40491-1.1084,0.71802-1.8008,0.93921c-0.69141,0.22131-1.43848,0.33179-2.23828,0.33179    c-0.28223,0-0.55566-0.01404-0.81934-0.04236c-0.26367-0.0282-0.52246-0.0658-0.77637-0.11292    c-0.45215,0.27319-0.67773,0.57898-0.67773,0.91785c0,0.29199,0.13379,0.50623,0.40234,0.64258    c0.26855,0.1366,0.62402,0.23303,1.06641,0.28955s0.94629,0.0918,1.51074,0.10596c0.56543,0.01404,1.14453,0.0448,1.73732,0.0918    c0.59277,0.04712,1.17188,0.12952,1.7373,0.24707c0.56445,0.1178,1.06836,0.30359,1.51074,0.55786    c0.44238,0.25415,0.79785,0.60022,1.06641,1.03796s0.40234,1.00049,0.40234,1.68762c0,0.64014-0.1582,1.26147-0.47266,1.86414    c-0.31641,0.60242-0.77246,1.13904-1.37012,1.60986c-0.59863,0.4707-1.33301,0.84961-2.20312,1.13684    c-0.87111,0.28711-1.86232,0.43079-2.97267,0.43079c-1.09277,0-2.04297-0.10596-2.85254-0.31775    c-0.81055-0.21191-1.4834-0.49426-2.01953-0.84741c-0.53711-0.35303-0.9375-0.76038-1.2002-1.22156    c-0.26465-0.46143-0.39551-0.94153-0.39551-1.44043c0-0.67786,0.2041-1.24524,0.61426-1.70178    c0.40918-0.45654,0.97168-0.82129,1.6875-1.09436c-0.38672-0.19775-0.69238-0.46118-0.91797-0.79089    c-0.22656-0.32947-0.33887-0.76257-0.33887-1.29919c0-0.21655,0.04004-0.44006,0.12012-0.6709    c0.0791-0.23059,0.19727-0.45886,0.35254-0.68481c0.15527-0.22607,0.35059-0.44006,0.58594-0.64258    c0.23535-0.20239,0.51367-0.38354,0.83398-0.5437c-0.73438-0.39551-1.31152-0.92261-1.73047-1.58167    c-0.41895-0.65894-0.62891-1.43103-0.62891-2.31604c0-0.71545,0.14355-1.36279,0.43164-1.94189    c0.28711-0.57898,0.68652-1.07324,1.2002-1.48279c0.5127-0.40955,1.12012-0.72241,1.82129-0.93909    c0.70117-0.21655,1.4668-0.32483,2.29492-0.32483c0.62109,0,1.20508,0.06348,1.75098,0.19067    c0.54591,0.12708,1.04494,0.31311,1.49709,0.55774H261.16571z M257.69208,79.0032c0-0.28247-0.08496-0.51331-0.25391-0.69202    c-0.16992-0.17871-0.40039-0.31775-0.69238-0.41663s-0.63379-0.17163-1.02443-0.21887    c-0.39062-0.047-0.80469-0.08228-1.24219-0.10596c-0.4375-0.02332-0.88965-0.04456-1.35547-0.06348    c-0.4668-0.0188-0.9209-0.05652-1.36328-0.11304c-0.38574,0.21667-0.69922,0.47095-0.93945,0.76257    c-0.23926,0.29175-0.35938,0.63074-0.35938,1.01685c0,0.25415,0.06348,0.49182,0.19043,0.71313    c0.12695,0.22107,0.3291,0.41174,0.60742,0.57202c0.27734,0.15991,0.6377,0.28455,1.08008,0.37415    c0.44238,0.08936,0.9834,0.13416,1.62402,0.13416c0.64941,0,1.20996-0.04932,1.68066-0.14819    c0.47072-0.09888,0.85939-0.23547,1.16505-0.40955c0.30566-0.17432,0.5293-0.38135,0.6709-0.62146    C257.62177,79.5469,257.69208,79.28555,257.69208,79.0032z M253.75163,70.75576c0.43262,0,0.80957-0.05859,1.12988-0.17651    c0.32031-0.11755,0.58594-0.28003,0.79785-0.48718c0.21191-0.20703,0.37209-0.45654,0.48048-0.74841    c0.1084-0.29175,0.16211-0.61194,0.16211-0.96033c0-0.71545-0.21387-1.28271-0.64259-1.70178    c-0.42871-0.41882-1.07129-0.62842-1.92773-0.62842s-1.49902,0.20959-1.92773,0.62842    c-0.42871,0.41907-0.64258,0.98633-0.64258,1.70178c0,0.33887,0.05469,0.65442,0.16309,0.94617    c0.10742,0.29187,0.26758,0.5437,0.47949,0.75549c0.21191,0.21191,0.48047,0.37671,0.80566,0.49426    C252.95378,70.69717,253.3278,70.75576,253.75163,70.75576z"/>
	</g>
</g>
</svg>